<?xml version="1.0" encoding="UTF-8"?>
<!-- Generator: Adobe Illustrator 18.0.0, SVG Export Plug-In . SVG Version: 6.00 Build 0)  -->
<svg enable-background="new 0 0 250.189 250.189" version="1.1" viewBox="0 0 250.19 250.19" xml:space="preserve" xmlns="http://www.w3.org/2000/svg" xmlns:cc="http://creativecommons.org/ns#" xmlns:dc="http://purl.org/dc/elements/1.1/" xmlns:rdf="http://www.w3.org/1999/02/22-rdf-syntax-ns#"><metadata><rdf:RDF><cc:Work rdf:about=""><dc:format>image/svg+xml</dc:format><dc:type rdf:resource="http://purl.org/dc/dcmitype/StillImage"/><dc:title/></cc:Work></rdf:RDF></metadata>

	<path d="m159.84 147.25v-112.51c0-19.158-15.59-34.744-34.752-34.744-19.159 0-34.746 15.586-34.746 34.744v112.51c-14.234 10.843-22.617 27.59-22.617 45.575 0 31.631 25.732 57.364 57.363 57.364 31.633 0 57.367-25.733 57.367-57.364 0-17.983-8.383-34.73-22.615-45.574zm-34.752 87.938c-23.359 0-42.363-19.004-42.363-42.364 0-14.294 7.188-27.537 19.228-35.425 2.115-1.386 3.39-3.745 3.39-6.273v-116.38c0-10.887 8.858-19.744 19.746-19.744 10.892 0 19.752 8.857 19.752 19.744v116.38c0 2.529 1.274 4.887 3.39 6.273 12.038 7.889 19.226 21.132 19.226 35.425-2e-3 23.36-19.008 42.364-42.369 42.364z"/>
	<path d="m132.6 169.04v-99.118c0-4.142-3.357-7.5-7.5-7.5s-7.5 3.358-7.5 7.5v99.118c-10.104 3.183-17.43 12.622-17.43 23.783 0 13.767 11.16 24.931 24.93 24.931 13.773 0 24.932-11.164 24.932-24.931-1e-3 -11.162-7.327-20.602-17.432-23.783z"/>
















</svg>
